<svg fill="#000000" xmlns="http://www.w3.org/2000/svg"  viewBox="0 0 24 24" width="24px" height="24px"><path d="M 11.642578 2.0078125 C 7.6816464 2.1974373 4.5 5.4895633 4.5 9.5 C 4.5 11.987212 5.880487 13.950965 7.1699219 15.769531 C 8.4593568 17.588097 9.6808842 19.29388 9.9453125 21.199219 C 10.084996 22.21098 10.961668 23 11.998047 23 L 12.001953 23 C 13.022758 23 13.915263 22.239105 14.052734 21.214844 C 14.346613 19.051181 15.890605 17.147645 17.337891 15.042969 C 18.785177 12.938292 20.117769 10.447606 19.175781 7.4394531 C 18.244931 4.4659784 15.610408 2.1958442 12.445312 2.0117188 C 12.175044 1.9960739 11.90664 1.9951708 11.642578 2.0078125 z M 11.736328 4.0058594 C 11.771038 4.0042587 11.806914 4.0068226 11.841797 4.0058594 L 9.84375 6.359375 L 8.5859375 5.1816406 C 9.4578392 4.4927363 10.544474 4.0608227 11.736328 4.0058594 z M 14.091797 4.4492188 C 15.323293 4.9923655 16.353115 5.9926536 16.955078 7.2460938 L 15.771484 8.6484375 C 15.607203 8.1527722 15.360571 7.6812773 14.998047 7.2734375 C 14.446617 6.6530789 13.605212 6.2846597 12.660156 6.1347656 L 14.091797 4.4492188 z M 7.2695312 6.6894531 L 8.5488281 7.8847656 L 6.5644531 10.220703 C 6.5258786 9.9821523 6.5 9.7429339 6.5 9.5 C 6.5 8.4706102 6.7828761 7.5113217 7.2695312 6.6894531 z M 12 8 C 12.749999 8 13.185226 8.2452444 13.501953 8.6015625 C 13.81868 8.9578806 14 9.4722221 14 10 C 14 10.485832 13.812405 10.936869 13.541016 11.287109 L 13.419922 11.431641 C 13.107647 11.756633 12.708977 12 12 12 C 11.250001 12 10.814774 11.754756 10.498047 11.398438 C 10.18132 11.042118 10 10.527778 10 10 C 10 9.5229497 10.188898 9.0846012 10.451172 8.7363281 L 10.597656 8.5605469 C 10.908911 8.242277 11.299933 8 12 8 z M 17.5 9.7011719 C 17.447155 11.161534 16.697002 12.444957 15.689453 13.910156 C 14.318739 15.90348 12.463434 18.052929 12.070312 20.947266 C 12.065784 20.981005 12.047148 21 12.001953 21 L 11.998047 21 C 11.952427 21 11.934101 20.986021 11.925781 20.925781 L 11.925781 20.923828 C 11.757678 19.712591 11.327401 18.635762 10.789062 17.642578 L 14.859375 12.826172 C 14.898345 12.786352 14.961256 12.767953 14.998047 12.726562 C 15.054897 12.662603 15.071207 12.578553 15.123047 12.511719 L 17.5 9.7011719 z M 8.2285156 11.349609 C 8.3927623 11.845957 8.6389784 12.318216 9.0019531 12.726562 C 9.5572803 13.351306 10.405573 13.722441 11.359375 13.869141 L 9.6796875 15.859375 C 9.3860142 15.433141 9.0873333 15.01547 8.8007812 14.611328 C 8.2482983 13.832129 7.7612482 13.094743 7.3652344 12.365234 L 8.2285156 11.349609 z"/></svg>